<?xml version="1.0" encoding="UTF-8"?>
<!DOCTYPE svg PUBLIC "-//W3C//DTD SVG 1.1//EN" "http://www.w3.org/Graphics/SVG/1.1/DTD/svg11.dtd">
<svg xmlns="http://www.w3.org/2000/svg" version="1.1" width="500px" height="500px" style="shape-rendering:geometricPrecision; text-rendering:geometricPrecision; image-rendering:optimizeQuality; fill-rule:evenodd; clip-rule:evenodd" xmlns:xlink="http://www.w3.org/1999/xlink">
<g><path style="opacity:0.814" fill="#d40b09" d="M 340.5,112.5 C 277.5,112.5 214.5,112.5 151.5,112.5C 154.641,111.679 157.975,111.179 161.5,111C 217.833,110.333 274.167,110.333 330.5,111C 334.025,111.179 337.359,111.679 340.5,112.5 Z"/></g>
<g><path style="opacity:1" fill="#fc0101" d="M 151.5,112.5 C 214.5,112.5 277.5,112.5 340.5,112.5C 348.627,113.114 356.294,115.114 363.5,118.5C 364.007,119.859 365.007,120.859 366.5,121.5C 366.291,122.086 365.957,122.586 365.5,123C 368.224,123.27 370.891,123.77 373.5,124.5C 374.167,126.5 374.833,128.5 375.5,130.5C 377.717,126.887 379.717,127.22 381.5,131.5C 381.291,132.086 380.957,132.586 380.5,133C 383.157,132.19 385.823,132.356 388.5,133.5C 390.167,134.5 391.5,135.833 392.5,137.5C 393.5,140.5 395.5,142.5 398.5,143.5C 405.319,150.459 410.652,158.459 414.5,167.5C 415.053,169.939 415.053,172.273 414.5,174.5C 415.88,176.174 417.213,177.84 418.5,179.5C 417.5,182.167 416.5,184.833 415.5,187.5C 416.363,189.872 417.529,189.872 419,187.5C 420.284,188.572 420.617,189.905 420,191.5C 420.667,192.833 421.333,192.833 422,191.5C 423.966,196.648 424.966,203.315 425,211.5C 425.69,212.738 426.19,212.738 426.5,211.5C 427.811,218.735 427.811,226.068 426.5,233.5C 424.558,238.056 423.892,243.056 424.5,248.5C 423.686,255.931 421.686,262.931 418.5,269.5C 417.325,269.281 416.325,269.614 415.5,270.5C 414.811,272.444 414.311,274.444 414,276.5C 413.667,276.167 413.333,275.833 413,275.5C 411.706,276.854 411.54,278.188 412.5,279.5C 411.726,280.711 410.893,280.711 410,279.5C 410.135,281.425 410.302,283.425 410.5,285.5C 406.049,282.5 404.716,283.666 406.5,289C 404.287,291.474 402.954,294.307 402.5,297.5C 397.833,304.167 392.167,309.833 385.5,314.5C 383.194,314.993 380.861,315.326 378.5,315.5C 378.567,316.959 378.234,318.292 377.5,319.5C 376.341,321.25 374.674,322.25 372.5,322.5C 368.835,323.219 365.168,324.052 361.5,325C 360.29,326.039 359.29,327.206 358.5,328.5C 352.456,329.108 346.456,330.108 340.5,331.5C 279.169,332.667 217.836,332.833 156.5,332C 151.292,330.603 145.959,330.103 140.5,330.5C 138.485,329.076 136.152,328.41 133.5,328.5C 129.851,327.733 126.518,326.4 123.5,324.5C 120.491,321.131 117.157,317.964 113.5,315C 110.715,314.441 108.382,313.108 106.5,311C 105.207,310.51 103.873,310.343 102.5,310.5C 99.6057,309.118 97.1057,307.118 95,304.5C 84.4125,293.331 76.9125,280.331 72.5,265.5C 72.9465,262.99 72.2798,260.99 70.5,259.5C 70.7768,254.767 70.4435,250.1 69.5,245.5C 71.6429,243.058 71.8095,240.392 70,237.5C 68.9887,238.337 67.8221,238.67 66.5,238.5C 66.8276,227.986 66.4942,217.653 65.5,207.5C 66.1098,206.609 66.4431,205.609 66.5,204.5C 67.562,202.518 68.8953,200.685 70.5,199C 70.0426,198.586 69.7093,198.086 69.5,197.5C 70.3633,192.537 71.03,187.537 71.5,182.5C 72.5961,177.868 74.2628,173.534 76.5,169.5C 78.9529,168.183 81.6195,167.35 84.5,167C 83.1667,166.333 83.1667,165.667 84.5,165C 80.8642,164.374 80.8642,163.207 84.5,161.5C 85.3333,162.5 86.1667,163.5 87,164.5C 87.6667,162.5 87.6667,160.5 87,158.5C 86.1887,159.96 85.3554,160.293 84.5,159.5C 85.9863,156.527 87.4863,153.527 89,150.5C 89.6667,151.167 90.3333,151.833 91,152.5C 90.2075,150.5 90.3741,148.5 91.5,146.5C 93.1477,145.19 94.8144,143.857 96.5,142.5C 97.451,143.326 98.451,143.492 99.5,143C 99.6158,141.732 99.9491,140.398 100.5,139C 102.5,138.333 104.5,137.667 106.5,137C 107.424,136.15 107.424,135.15 106.5,134C 107.672,130.789 109.172,130.289 111,132.5C 111.236,130.189 112.069,128.189 113.5,126.5C 124.845,118.505 137.512,113.838 151.5,112.5 Z M 330.5,148.5 C 331.609,148.557 332.609,148.89 333.5,149.5C 349.126,151.146 362.126,157.812 372.5,169.5C 378.509,177.854 383.176,186.854 386.5,196.5C 389.567,211.048 390.234,225.714 388.5,240.5C 387.035,245.353 385.702,250.353 384.5,255.5C 381.62,262.256 377.953,268.59 373.5,274.5C 363.718,285.914 351.384,293.247 336.5,296.5C 278.845,297.634 221.178,297.801 163.5,297C 158.07,296.638 152.736,295.805 147.5,294.5C 141.15,292.157 135.15,288.99 129.5,285C 124.603,280.271 119.936,275.438 115.5,270.5C 114.89,268.566 113.89,266.899 112.5,265.5C 107.474,255.419 104.474,244.753 103.5,233.5C 102.538,226.588 102.205,219.588 102.5,212.5C 103.687,209.054 104.354,205.387 104.5,201.5C 107.568,189.978 112.568,179.311 119.5,169.5C 126.368,162.616 134.034,156.949 142.5,152.5C 146.323,151.664 149.989,150.664 153.5,149.5C 212.486,148.528 271.486,148.194 330.5,148.5 Z"/></g>
<g><path style="opacity:1" fill="#e6100e" d="M 363.5,118.5 C 372.67,122.246 381.004,127.246 388.5,133.5C 385.823,132.356 383.157,132.19 380.5,133C 380.957,132.586 381.291,132.086 381.5,131.5C 379.717,127.22 377.717,126.887 375.5,130.5C 374.833,128.5 374.167,126.5 373.5,124.5C 370.891,123.77 368.224,123.27 365.5,123C 365.957,122.586 366.291,122.086 366.5,121.5C 365.007,120.859 364.007,119.859 363.5,118.5 Z"/></g>
<g><path style="opacity:1" fill="#e80f0e" d="M 113.5,126.5 C 112.069,128.189 111.236,130.189 111,132.5C 109.172,130.289 107.672,130.789 106.5,134C 107.424,135.15 107.424,136.15 106.5,137C 104.5,137.667 102.5,138.333 100.5,139C 99.9491,140.398 99.6158,141.732 99.5,143C 98.451,143.492 97.451,143.326 96.5,142.5C 94.8144,143.857 93.1477,145.19 91.5,146.5C 97.26,138.072 104.593,131.405 113.5,126.5 Z"/></g>
<g><path style="opacity:1" fill="#cc1a1c" d="M 392.5,137.5 C 394.833,139.167 396.833,141.167 398.5,143.5C 395.5,142.5 393.5,140.5 392.5,137.5 Z"/></g>
<g><path style="opacity:0.408" fill="#b51b1a" d="M 330.5,148.5 C 271.486,148.194 212.486,148.528 153.5,149.5C 155.292,148.691 157.292,148.191 159.5,148C 216.668,147.168 273.668,147.335 330.5,148.5 Z"/></g>
<g><path style="opacity:1" fill="#ea0d0d" d="M 333.5,149.5 C 340.006,148.801 346.506,148.801 353,149.5C 355.528,151.345 358.361,152.512 361.5,153C 357.499,155.563 357.999,157.397 363,158.5C 363.772,158.355 364.439,158.022 365,157.5C 368.517,160.913 371.017,164.913 372.5,169.5C 362.126,157.812 349.126,151.146 333.5,149.5 Z"/></g>
<g><path style="opacity:1" fill="#e5100d" d="M 142.5,152.5 C 134.034,156.949 126.368,162.616 119.5,169.5C 119.586,168.504 119.252,167.671 118.5,167C 120.632,166.082 121.299,164.749 120.5,163C 122.906,162.279 125.573,161.446 128.5,160.5C 128.286,158.856 128.62,157.356 129.5,156C 128.833,155.667 128.167,155.333 127.5,155C 128.931,154.535 130.097,153.701 131,152.5C 132.436,157.342 133.936,157.509 135.5,153C 137.81,152.503 140.143,152.337 142.5,152.5 Z"/></g>
<g><path style="opacity:1" fill="#ea0c09" d="M 91.5,146.5 C 90.3741,148.5 90.2075,150.5 91,152.5C 90.3333,151.833 89.6667,151.167 89,150.5C 87.4863,153.527 85.9863,156.527 84.5,159.5C 85.3554,160.293 86.1887,159.96 87,158.5C 87.6667,160.5 87.6667,162.5 87,164.5C 86.1667,163.5 85.3333,162.5 84.5,161.5C 80.8642,163.207 80.8642,164.374 84.5,165C 83.1667,165.667 83.1667,166.333 84.5,167C 81.6195,167.35 78.9529,168.183 76.5,169.5C 79.7613,160.63 84.7613,152.963 91.5,146.5 Z"/></g>
<g><path style="opacity:1" fill="#ec0e0b" d="M 414.5,167.5 C 422.222,181.045 426.222,195.711 426.5,211.5C 426.19,212.738 425.69,212.738 425,211.5C 424.966,203.315 423.966,196.648 422,191.5C 421.333,192.833 420.667,192.833 420,191.5C 420.617,189.905 420.284,188.572 419,187.5C 417.529,189.872 416.363,189.872 415.5,187.5C 416.5,184.833 417.5,182.167 418.5,179.5C 417.213,177.84 415.88,176.174 414.5,174.5C 415.053,172.273 415.053,169.939 414.5,167.5 Z"/></g>
<g><path style="opacity:1" fill="#e40f10" d="M 71.5,182.5 C 71.03,187.537 70.3633,192.537 69.5,197.5C 69.7093,198.086 70.0426,198.586 70.5,199C 68.8953,200.685 67.562,202.518 66.5,204.5C 66.9337,196.775 68.6003,189.441 71.5,182.5 Z"/></g>
<g><path style="opacity:0.102" fill="#c4171a" d="M 104.5,201.5 C 104.354,205.387 103.687,209.054 102.5,212.5C 102.251,208.542 102.918,204.876 104.5,201.5 Z"/></g>
<g><path style="opacity:0.227" fill="#d71412" d="M 386.5,196.5 C 388.005,198.981 389.672,201.481 391.5,204C 391.175,216.467 390.175,228.633 388.5,240.5C 390.234,225.714 389.567,211.048 386.5,196.5 Z"/></g>
<g><path style="opacity:0.808" fill="#e31413" d="M 65.5,207.5 C 66.4942,217.653 66.8276,227.986 66.5,238.5C 65.8118,233.433 65.1451,228.267 64.5,223C 65.0995,218.089 65.4329,212.922 65.5,207.5 Z"/></g>
<g><path style="opacity:0.906" fill="#d41713" d="M 426.5,233.5 C 426.698,238.75 426.031,243.75 424.5,248.5C 423.892,243.056 424.558,238.056 426.5,233.5 Z"/></g>
<g><path style="opacity:1" fill="#e3120f" d="M 103.5,233.5 C 104.474,244.753 107.474,255.419 112.5,265.5C 111.069,265.119 110.236,264.119 110,262.5C 109.667,262.833 109.333,263.167 109,263.5C 107.119,257.616 105.453,251.616 104,245.5C 103.07,247.966 102.237,247.799 101.5,245C 102.072,241.015 102.739,237.182 103.5,233.5 Z"/></g>
<g><path style="opacity:1" fill="#eb0c0b" d="M 70.5,259.5 C 67.9067,252.862 66.5734,245.862 66.5,238.5C 67.8221,238.67 68.9887,238.337 70,237.5C 71.8095,240.392 71.6429,243.058 69.5,245.5C 70.4435,250.1 70.7768,254.767 70.5,259.5 Z"/></g>
<g><path style="opacity:0.851" fill="#ca1f1c" d="M 70.5,259.5 C 72.2798,260.99 72.9465,262.99 72.5,265.5C 71.2616,263.786 70.595,261.786 70.5,259.5 Z"/></g>
<g><path style="opacity:1" fill="#e1110f" d="M 384.5,255.5 C 383.39,259.406 382.557,263.406 382,267.5C 381.395,269.481 380.395,269.815 379,268.5C 377.878,270.42 377.044,272.42 376.5,274.5C 375.5,274.5 374.5,274.5 373.5,274.5C 377.953,268.59 381.62,262.256 384.5,255.5 Z"/></g>
<g><path style="opacity:1" fill="#e0150e" d="M 418.5,269.5 C 416.394,275.175 413.728,280.509 410.5,285.5C 410.302,283.425 410.135,281.425 410,279.5C 410.893,280.711 411.726,280.711 412.5,279.5C 411.54,278.188 411.706,276.854 413,275.5C 413.333,275.833 413.667,276.167 414,276.5C 414.311,274.444 414.811,272.444 415.5,270.5C 416.325,269.614 417.325,269.281 418.5,269.5 Z"/></g>
<g><path style="opacity:1" fill="#eb0c0b" d="M 115.5,270.5 C 119.936,275.438 124.603,280.271 129.5,285C 135.15,288.99 141.15,292.157 147.5,294.5C 140.493,293.948 134.493,291.281 129.5,286.5C 122.542,287.887 119.209,284.887 119.5,277.5C 118.522,277.977 117.689,278.643 117,279.5C 116.25,278.874 115.416,278.374 114.5,278C 115.833,277.333 115.833,276.667 114.5,276C 115.167,275.667 115.833,275.333 116.5,275C 115.62,273.644 115.286,272.144 115.5,270.5 Z"/></g>
<g><path style="opacity:1" fill="#e5120e" d="M 410.5,285.5 C 408.327,289.852 405.66,293.852 402.5,297.5C 402.954,294.307 404.287,291.474 406.5,289C 404.716,283.666 406.049,282.5 410.5,285.5 Z"/></g>
<g><path style="opacity:0.843" fill="#e8130f" d="M 147.5,294.5 C 152.736,295.805 158.07,296.638 163.5,297C 221.178,297.801 278.845,297.634 336.5,296.5C 276.134,298.172 215.468,299.172 154.5,299.5C 151.856,298.035 149.523,296.368 147.5,294.5 Z"/></g>
<g><path style="opacity:1" fill="#e60f0d" d="M 102.5,310.5 C 103.873,310.343 105.207,310.51 106.5,311C 108.382,313.108 110.715,314.441 113.5,315C 117.157,317.964 120.491,321.131 123.5,324.5C 115.406,321.395 108.406,316.728 102.5,310.5 Z"/></g>
<g><path style="opacity:1" fill="#db0e14" d="M 385.5,314.5 C 383.178,316.664 380.511,318.331 377.5,319.5C 378.234,318.292 378.567,316.959 378.5,315.5C 380.861,315.326 383.194,314.993 385.5,314.5 Z"/></g>
<g><path style="opacity:1" fill="#d71814" d="M 372.5,322.5 C 368.309,325.458 363.642,327.458 358.5,328.5C 359.29,327.206 360.29,326.039 361.5,325C 365.168,324.052 368.835,323.219 372.5,322.5 Z"/></g>
<g><path style="opacity:0.769" fill="#cb1e19" d="M 133.5,328.5 C 136.152,328.41 138.485,329.076 140.5,330.5C 137.848,330.59 135.515,329.924 133.5,328.5 Z"/></g>
<g><path style="opacity:0.998" fill="#db1a17" d="M 358.5,328.5 C 351.264,331.604 343.597,333.437 335.5,334C 276.167,334.667 216.833,334.667 157.5,334C 151.538,333.642 145.871,332.475 140.5,330.5C 145.959,330.103 151.292,330.603 156.5,332C 217.836,332.833 279.169,332.667 340.5,331.5C 346.456,330.108 352.456,329.108 358.5,328.5 Z"/></g>
<g><path style="opacity:0.607" fill="#b81f1d" d="M 276.5,345.5 C 291.005,344.174 305.672,344.174 320.5,345.5C 319.965,347.261 318.965,348.594 317.5,349.5C 317.539,348.417 317.873,347.417 318.5,346.5C 304.516,345.501 290.516,345.167 276.5,345.5 Z"/></g>
<g><path style="opacity:0.616" fill="#c11f1c" d="M 383.5,345.5 C 397.994,344.339 412.661,344.172 427.5,345C 426.182,347.824 424.515,350.324 422.5,352.5C 422.884,350.071 423.551,347.737 424.5,345.5C 410.833,345.5 397.167,345.5 383.5,345.5 Z"/></g>
<g><path style="opacity:1" fill="#d81313" d="M 133.5,352.5 C 130.879,350.515 127.879,349.515 124.5,349.5C 124.5,348.5 124.5,347.5 124.5,346.5C 108.167,346.5 91.8333,346.5 75.5,346.5C 76.2625,345.732 77.2625,345.232 78.5,345C 93.5,344.333 108.5,344.333 123.5,345C 127.907,346.339 131.24,348.839 133.5,352.5 Z"/></g>
<g><path style="opacity:1" fill="#d01b19" d="M 237.5,348.5 C 234.838,346.732 231.838,346.065 228.5,346.5C 228.611,345.883 228.944,345.383 229.5,345C 233.506,343.579 236.172,344.746 237.5,348.5 Z"/></g>
<g><path style="opacity:1" fill="#fa0302" d="M 75.5,346.5 C 91.8333,346.5 108.167,346.5 124.5,346.5C 124.5,347.5 124.5,348.5 124.5,349.5C 127.879,349.515 130.879,350.515 133.5,352.5C 134.453,356.403 135.953,360.07 138,363.5C 138.179,367.025 138.679,370.359 139.5,373.5C 139.5,374.167 139.167,374.5 138.5,374.5C 136.955,375.23 136.122,376.563 136,378.5C 134.372,377.903 132.705,378.237 131,379.5C 131.02,376.326 131.52,373.159 132.5,370C 132.333,368.5 132.167,367 132,365.5C 131.617,364.944 131.117,364.611 130.5,364.5C 130.538,359.534 128.205,356.201 123.5,354.5C 122.209,354.737 121.209,354.404 120.5,353.5C 113.508,352.834 106.341,352.5 99,352.5C 91.4675,352.503 84.3008,353.169 77.5,354.5C 75.8008,354.34 74.1341,354.506 72.5,355C 73.3363,356.243 73.003,357.41 71.5,358.5C 69.3063,358.642 66.9729,358.309 64.5,357.5C 66.1667,351.833 69.8333,348.167 75.5,346.5 Z"/></g>
<g><path style="opacity:1" fill="#f40705" d="M 228.5,346.5 C 231.838,346.065 234.838,346.732 237.5,348.5C 240.579,351.65 242.913,355.317 244.5,359.5C 244.683,361.936 244.016,364.103 242.5,366C 244.11,367.495 245.776,367.661 247.5,366.5C 249.584,369.668 249.917,373.001 248.5,376.5C 247.575,377.562 246.575,377.562 245.5,376.5C 244.886,373.083 243.22,370.416 240.5,368.5C 237.61,365.078 234.943,361.411 232.5,357.5C 229.073,361.351 226.406,365.685 224.5,370.5C 224.611,371.117 224.944,371.617 225.5,372C 229.167,372.333 232.833,372.667 236.5,373C 236.146,374.626 236.146,376.459 236.5,378.5C 229.167,378.5 221.833,378.5 214.5,378.5C 213.833,381.5 213.167,384.5 212.5,387.5C 212.16,389.679 211.16,391.512 209.5,393C 206.183,393.498 202.85,393.665 199.5,393.5C 207.943,377.062 217.609,361.395 228.5,346.5 Z M 240.5,368.5 C 235.604,370.446 230.271,371.113 224.5,370.5C 226.406,365.685 229.073,361.351 232.5,357.5C 234.943,361.411 237.61,365.078 240.5,368.5 Z"/></g>
<g><path style="opacity:1" fill="#f90303" d="M 276.5,345.5 C 290.516,345.167 304.516,345.501 318.5,346.5C 317.873,347.417 317.539,348.417 317.5,349.5C 317.573,351.027 316.906,352.027 315.5,352.5C 301.624,352.455 287.958,352.455 274.5,352.5C 272.69,353.955 271.023,353.788 269.5,352C 271.737,350.6 273.404,348.767 274.5,346.5C 274.842,345.662 275.508,345.328 276.5,345.5 Z"/></g>
<g><path style="opacity:1" fill="#fc0101" d="M 326.5,346.5 C 328.5,346.5 330.5,346.5 332.5,346.5C 332.333,359.171 332.5,371.838 333,384.5C 333.5,385 334,385.5 334.5,386C 344.517,386.168 354.517,386.668 364.5,387.5C 362.995,388.842 362.328,390.508 362.5,392.5C 350.5,392.5 338.5,392.5 326.5,392.5C 326.5,377.167 326.5,361.833 326.5,346.5 Z"/></g>
<g><path style="opacity:1" fill="#f90303" d="M 383.5,345.5 C 397.167,345.5 410.833,345.5 424.5,345.5C 423.551,347.737 422.884,350.071 422.5,352.5C 408.496,352.333 394.496,352.5 380.5,353C 381.706,354.018 381.373,354.518 379.5,354.5C 377.5,354.5 376.5,353.5 376.5,351.5C 377.5,349.52 378.833,347.854 380.5,346.5C 381.209,345.596 382.209,345.263 383.5,345.5 Z"/></g>
<g><path style="opacity:0.694" fill="#d74347" d="M 437.5,344.5 C 438.117,344.611 438.617,344.944 439,345.5C 440.539,349.805 439.206,352.472 435,353.5C 433.301,353.613 432.134,352.947 431.5,351.5C 433.117,352.038 434.784,352.371 436.5,352.5C 436.509,350.339 437.176,349.006 438.5,348.5C 438.154,347.151 437.821,345.817 437.5,344.5 Z"/></g>
<g><path style="opacity:0.545" fill="#f43a3b" d="M 437.5,344.5 C 437.821,345.817 438.154,347.151 438.5,348.5C 437.176,349.006 436.509,350.339 436.5,352.5C 434.784,352.371 433.117,352.038 431.5,351.5C 428.984,347.822 429.984,345.155 434.5,343.5C 435.584,343.685 436.584,344.018 437.5,344.5 Z"/></g>
<g><path style="opacity:0.035" fill="#b21c1b" d="M 187.5,345.5 C 172.833,345.5 158.167,345.5 143.5,345.5C 143.5,361.167 143.5,376.833 143.5,392.5C 142.504,376.675 142.17,360.675 142.5,344.5C 157.676,344.171 172.676,344.504 187.5,345.5 Z"/></g>
<g><path style="opacity:0.149" fill="#ce1614" d="M 120.5,353.5 C 106.131,353.218 91.7973,353.551 77.5,354.5C 84.3008,353.169 91.4675,352.503 99,352.5C 106.341,352.5 113.508,352.834 120.5,353.5 Z"/></g>
<g><path style="opacity:0.157" fill="#cd1614" d="M 315.5,352.5 C 303.674,353.331 291.674,353.831 279.5,354C 277.548,354.366 275.882,355.199 274.5,356.5C 274.5,355.167 274.5,353.833 274.5,352.5C 287.958,352.455 301.624,352.455 315.5,352.5 Z"/></g>
<g><path style="opacity:1" fill="#dd1411" d="M 326.5,346.5 C 328.607,345.532 330.941,345.198 333.5,345.5C 333.171,358.344 333.505,371.011 334.5,383.5C 345.341,384.167 356.341,384.833 367.5,385.5C 366.164,388.154 364.497,390.487 362.5,392.5C 362.328,390.508 362.995,388.842 364.5,387.5C 354.517,386.668 344.517,386.168 334.5,386C 334,385.5 333.5,385 333,384.5C 332.5,371.838 332.333,359.171 332.5,346.5C 330.5,346.5 328.5,346.5 326.5,346.5 Z"/></g>
<g><path style="opacity:1" fill="#dc1314" d="M 380.5,346.5 C 378.833,347.854 377.5,349.52 376.5,351.5C 376.5,353.5 377.5,354.5 379.5,354.5C 381.373,354.518 381.706,354.018 380.5,353C 394.496,352.5 408.496,352.333 422.5,352.5C 410.34,353.331 398.007,353.831 385.5,354C 380.944,355.722 377.944,358.889 376.5,363.5C 376.319,361.971 375.986,360.304 375.5,358.5C 374.15,357.05 372.484,356.383 370.5,356.5C 369.061,363.199 368.061,369.866 367.5,376.5C 365.049,365.236 368.049,355.736 376.5,348C 377.745,347.209 379.078,346.709 380.5,346.5 Z"/></g>
<g><path style="opacity:1" fill="#d81413" d="M 133.5,352.5 C 136.537,355.06 138.371,358.393 139,362.5C 139.499,366.152 139.665,369.818 139.5,373.5C 138.679,370.359 138.179,367.025 138,363.5C 135.953,360.07 134.453,356.403 133.5,352.5 Z"/></g>
<g><path style="opacity:0.804" fill="#d81415" d="M 123.5,354.5 C 128.205,356.201 130.538,359.534 130.5,364.5C 129.008,360.659 126.675,357.325 123.5,354.5 Z"/></g>
<g><path style="opacity:0.867" fill="#db1919" d="M 418.5,363.5 C 419.922,363.709 421.255,364.209 422.5,365C 420.686,367.479 419.019,369.979 417.5,372.5C 417.586,370.323 418.253,368.323 419.5,366.5C 418.873,365.583 418.539,364.583 418.5,363.5 Z"/></g>
<g><path style="opacity:0.363" fill="#bb2123" d="M 334.5,383.5 C 333.505,371.011 333.171,358.344 333.5,345.5C 330.941,345.198 328.607,345.532 326.5,346.5C 326.167,346.5 325.833,346.5 325.5,346.5C 327.988,344.612 330.988,343.945 334.5,344.5C 334.5,357.5 334.5,370.5 334.5,383.5 Z"/></g>
<g><path style="opacity:1" fill="#f20808" d="M 187.5,345.5 C 195.631,348.757 198.797,354.757 197,363.5C 193.92,371.461 188.087,374.961 179.5,374C 185.682,380.014 191.682,386.181 197.5,392.5C 193.541,393.66 189.541,393.827 185.5,393C 180.963,388.631 176.63,384.131 172.5,379.5C 169.346,374.913 165.679,370.747 161.5,367C 169.344,366.829 177.011,366.329 184.5,365.5C 185.167,365.5 185.5,365.167 185.5,364.5C 189.5,360.833 189.5,357.167 185.5,353.5C 185.158,352.662 184.492,352.328 183.5,352.5C 186.318,351.844 187.985,350.011 188.5,347C 173.837,346.5 159.17,346.333 144.5,346.5C 144.5,361.833 144.5,377.167 144.5,392.5C 144.167,392.5 143.833,392.5 143.5,392.5C 143.5,376.833 143.5,361.167 143.5,345.5C 158.167,345.5 172.833,345.5 187.5,345.5 Z"/></g>
<g><path style="opacity:0.933" fill="#e21614" d="M 184.5,365.5 C 177.011,366.329 169.344,366.829 161.5,367C 165.679,370.747 169.346,374.913 172.5,379.5C 167.852,375.705 163.519,371.705 159.5,367.5C 167.433,365.532 175.766,364.865 184.5,365.5 Z"/></g>
<g><path style="opacity:0.027" fill="#b52322" d="M 185.5,364.5 C 185.5,365.167 185.167,365.5 184.5,365.5C 175.766,364.865 167.433,365.532 159.5,367.5C 157.767,366.992 157.434,366.159 158.5,365C 167.494,364.5 176.494,364.334 185.5,364.5 Z"/></g>
<g><path style="opacity:1" fill="#fa0202" d="M 183.5,352.5 C 172.833,352.5 162.167,352.5 151.5,352.5C 151.5,365.833 151.5,379.167 151.5,392.5C 149.167,392.5 146.833,392.5 144.5,392.5C 144.5,377.167 144.5,361.833 144.5,346.5C 159.17,346.333 173.837,346.5 188.5,347C 187.985,350.011 186.318,351.844 183.5,352.5 Z"/></g>
<g><path style="opacity:1" fill="#d81815" d="M 240.5,368.5 C 243.22,370.416 244.886,373.083 245.5,376.5C 244.173,375.2 242.84,373.867 241.5,372.5C 239.348,374.162 237.682,376.162 236.5,378.5C 236.146,376.459 236.146,374.626 236.5,373C 232.833,372.667 229.167,372.333 225.5,372C 224.944,371.617 224.611,371.117 224.5,370.5C 230.271,371.113 235.604,370.446 240.5,368.5 Z"/></g>
<g><path style="opacity:1" fill="#ec0d0b" d="M 244.5,359.5 C 251.834,370.192 258.834,381.192 265.5,392.5C 262.216,393.657 258.882,393.824 255.5,393C 251.265,388.026 247.931,382.526 245.5,376.5C 246.575,377.562 247.575,377.562 248.5,376.5C 249.917,373.001 249.584,369.668 247.5,366.5C 245.776,367.661 244.11,367.495 242.5,366C 244.016,364.103 244.683,361.936 244.5,359.5 Z"/></g>
<g><path style="opacity:0.573" fill="#c21d1b" d="M 183.5,352.5 C 184.492,352.328 185.158,352.662 185.5,353.5C 174.5,353.5 163.5,353.5 152.5,353.5C 152.5,366.833 152.5,380.167 152.5,393.5C 149.287,393.81 146.287,393.477 143.5,392.5C 143.833,392.5 144.167,392.5 144.5,392.5C 146.833,392.5 149.167,392.5 151.5,392.5C 151.5,379.167 151.5,365.833 151.5,352.5C 162.167,352.5 172.833,352.5 183.5,352.5 Z"/></g>
<g><path style="opacity:1" fill="#f40706" d="M 376.5,363.5 C 390.709,364.027 404.709,364.027 418.5,363.5C 418.539,364.583 418.873,365.583 419.5,366.5C 418.253,368.323 417.586,370.323 417.5,372.5C 404.006,373.331 390.339,373.831 376.5,374C 378.747,379.082 382.413,382.582 387.5,384.5C 399.322,385.495 411.322,385.828 423.5,385.5C 423.5,386.5 423.5,387.5 423.5,388.5C 423.376,390.582 422.376,392.082 420.5,393C 408.833,393.667 397.167,393.667 385.5,393C 376.153,391.153 370.153,385.653 367.5,376.5C 368.061,369.866 369.061,363.199 370.5,356.5C 372.484,356.383 374.15,357.05 375.5,358.5C 375.986,360.304 376.319,361.971 376.5,363.5 Z"/></g>
<g><path style="opacity:1" fill="#e31310" d="M 274.5,346.5 C 273.404,348.767 271.737,350.6 269.5,352C 271.023,353.788 272.69,353.955 274.5,352.5C 274.5,353.833 274.5,355.167 274.5,356.5C 267.575,365.223 267.908,373.723 275.5,382C 277.087,382.862 278.754,383.529 280.5,384C 293.513,384.167 306.513,384.667 319.5,385.5C 318.965,387.261 317.965,388.594 316.5,389.5C 316.5,388.5 316.5,387.5 316.5,386.5C 304.586,386.179 292.753,386.512 281,387.5C 278.279,384.223 275.112,383.723 271.5,386C 273.041,387.371 274.375,388.871 275.5,390.5C 274.5,390.5 273.5,390.5 272.5,390.5C 267.349,388.016 264.016,384.016 262.5,378.5C 258.465,367.534 260.465,357.7 268.5,349C 270.407,347.878 272.407,347.045 274.5,346.5 Z"/></g>
<g><path style="opacity:1" fill="#fa0201" d="M 262.5,378.5 C 262.173,373.456 262.506,368.456 263.5,363.5C 264.086,363.709 264.586,364.043 265,364.5C 265.197,359.822 266.197,359.488 268,363.5C 268.062,368.654 268.895,373.654 270.5,378.5C 268.627,380.149 268.294,381.983 269.5,384C 269.15,385.257 268.483,385.591 267.5,385C 266.892,381.922 265.226,379.755 262.5,378.5 Z"/></g>
<g><path style="opacity:1" fill="#d91314" d="M 236.5,378.5 C 230.321,379.167 223.988,379.833 217.5,380.5C 216.057,383.077 214.39,385.41 212.5,387.5C 213.167,384.5 213.833,381.5 214.5,378.5C 221.833,378.5 229.167,378.5 236.5,378.5 Z"/></g>
<g><path style="opacity:1" fill="#eb0d0b" d="M 77.5,354.5 C 68.6627,363.251 68.3293,372.418 76.5,382C 78.087,382.862 79.7536,383.529 81.5,384C 94.1623,384.5 106.829,384.667 119.5,384.5C 128.31,380.896 131.976,374.229 130.5,364.5C 131.117,364.611 131.617,364.944 132,365.5C 132.167,367 132.333,368.5 132.5,370C 131.52,373.159 131.02,376.326 131,379.5C 132.705,378.237 134.372,377.903 136,378.5C 136.122,376.563 136.955,375.23 138.5,374.5C 137.449,382.724 133.116,388.558 125.5,392C 110.555,393.6 95.5548,393.934 80.5,393C 68.0777,389.692 61.7443,381.526 61.5,368.5C 61.4336,364.421 62.4336,360.755 64.5,357.5C 66.9729,358.309 69.3063,358.642 71.5,358.5C 73.003,357.41 73.3363,356.243 72.5,355C 74.1341,354.506 75.8008,354.34 77.5,354.5 Z"/></g>
<g><path style="opacity:0.659" fill="#bf201f" d="M 387.5,384.5 C 400.517,384.168 413.517,384.501 426.5,385.5C 425.812,386.855 424.812,387.855 423.5,388.5C 423.5,387.5 423.5,386.5 423.5,385.5C 411.322,385.828 399.322,385.495 387.5,384.5 Z"/></g>
<g><path style="opacity:1" fill="#fc0101" d="M 119.5,384.5 C 123.139,384.89 126.305,383.89 129,381.5C 129.309,382.766 129.809,383.933 130.5,385C 128.699,385.317 128.366,385.984 129.5,387C 128.552,387.483 127.552,387.649 126.5,387.5C 126.5,388.5 126.5,389.5 126.5,390.5C 113.61,391.492 100.61,391.492 87.5,390.5C 86.6364,388.803 85.3031,387.637 83.5,387C 95.8752,387.15 107.875,386.317 119.5,384.5 Z"/></g>
<g><path style="opacity:1" fill="#fb0403" d="M 316.5,389.5 C 316.573,391.027 315.906,392.027 314.5,392.5C 302.829,392.667 291.162,392.5 279.5,392C 278.099,391.59 276.766,391.09 275.5,390.5C 274.375,388.871 273.041,387.371 271.5,386C 275.112,383.723 278.279,384.223 281,387.5C 292.753,386.512 304.586,386.179 316.5,386.5C 316.5,387.5 316.5,388.5 316.5,389.5 Z"/></g>
<g><path style="opacity:0.058" fill="#ca1214" d="M 272.5,390.5 C 273.5,390.5 274.5,390.5 275.5,390.5C 276.766,391.09 278.099,391.59 279.5,392C 291.162,392.5 302.829,392.667 314.5,392.5C 302.674,393.66 290.674,393.826 278.5,393C 276.277,392.434 274.277,391.6 272.5,390.5 Z"/></g>
<g><path style="opacity:0.082" fill="#ce1818" d="M 325.5,346.5 C 325.833,346.5 326.167,346.5 326.5,346.5C 326.5,361.833 326.5,377.167 326.5,392.5C 338.5,392.5 350.5,392.5 362.5,392.5C 350.345,393.495 338.011,393.829 325.5,393.5C 325.5,377.833 325.5,362.167 325.5,346.5 Z"/></g>
</svg>
