<?xml version="1.0" encoding="UTF-8"?>
<!DOCTYPE svg PUBLIC "-//W3C//DTD SVG 1.1//EN" "http://www.w3.org/Graphics/SVG/1.1/DTD/svg11.dtd">
<svg xmlns="http://www.w3.org/2000/svg" version="1.1" width="268px" height="268px" style="shape-rendering:geometricPrecision; text-rendering:geometricPrecision; image-rendering:optimizeQuality; fill-rule:evenodd; clip-rule:evenodd" xmlns:xlink="http://www.w3.org/1999/xlink">
<g><path style="opacity:1" fill="#6cb23d" d="M 207.5,41.5 C 208.67,47.2309 211.17,52.2309 215,56.5C 217.125,60.3132 218.792,64.3132 220,68.5C 224.078,72.9861 227.412,77.9861 230,83.5C 232.393,87.5419 235.227,91.2086 238.5,94.5C 241.258,97.678 243.258,101.345 244.5,105.5C 246.351,110.037 248.351,114.537 250.5,119C 248.815,123.131 250.149,125.631 254.5,126.5C 255.966,132.915 255.632,139.249 253.5,145.5C 252.914,145.291 252.414,144.957 252,144.5C 251.647,145.672 251.813,146.838 252.5,148C 251.004,150.851 248.671,152.351 245.5,152.5C 246.707,155.852 246.707,159.186 245.5,162.5C 242.005,170.161 238.005,177.495 233.5,184.5C 231.976,185.174 230.642,186.174 229.5,187.5C 228.614,188.325 228.281,189.325 228.5,190.5C 225.724,190.089 225.057,190.922 226.5,193C 224.924,196.158 223.424,199.325 222,202.5C 220.111,203.097 218.278,203.431 216.5,203.5C 217.97,206.319 217.804,208.986 216,211.5C 215.781,210.062 215.281,208.729 214.5,207.5C 213.042,209.138 212.708,210.805 213.5,212.5C 211.862,213.705 211.529,215.038 212.5,216.5C 211.044,216.322 209.711,217.156 208.5,219C 208.957,219.414 209.291,219.914 209.5,220.5C 208.846,222.115 208.346,223.782 208,225.5C 204.036,227.189 202.536,230.189 203.5,234.5C 200.298,235.7 197.131,235.7 194,234.5C 193.015,238.934 190.182,241.434 185.5,242C 152.5,242.667 119.5,242.667 86.5,242C 84.324,241.837 82.4907,241.004 81,239.5C 80.4387,240.022 79.772,240.355 79,240.5C 76.5313,236.703 73.0313,234.537 68.5,234C 68.5811,230.856 67.7478,227.689 66,224.5C 64.6439,223.62 63.1439,223.286 61.5,223.5C 61.5,222.167 61.5,220.833 61.5,219.5C 57.7932,218.276 55.6265,215.609 55,211.5C 54.3292,210.748 53.4959,210.414 52.5,210.5C 52.5,210.167 52.5,209.833 52.5,209.5C 53.4277,205.542 52.0944,202.875 48.5,201.5C 47.1055,197.331 44.7722,193.998 41.5,191.5C 33.0562,178.28 25.3895,164.613 18.5,150.5C 15.5643,142.024 15.0643,133.357 17,124.5C 17.4419,126.679 18.4419,127.345 20,126.5C 19.6799,123.54 19.6799,120.54 20,117.5C 23.6584,112.191 27.3251,106.858 31,101.5C 31.4955,99.5273 31.6621,97.5273 31.5,95.5C 41.4128,76.667 52.0794,58.3337 63.5,40.5C 65.934,37.5624 68.6007,34.7291 71.5,32C 75.1655,31.4839 77.8322,29.6505 79.5,26.5C 116.095,25.3404 152.762,25.1737 189.5,26C 198.508,27.8515 204.508,33.0182 207.5,41.5 Z M 144.5,131.5 C 142.154,137.34 137.821,139.507 131.5,138C 129.714,137.215 128.214,136.049 127,134.5C 126.5,112.169 126.333,89.8358 126.5,67.5C 131.392,62.6812 136.559,62.3478 142,66.5C 142.862,68.087 143.529,69.7536 144,71.5C 144.5,91.4972 144.667,111.497 144.5,131.5 Z M 105.5,90.5 C 95.3166,97.1779 88.8166,106.511 86,118.5C 82.2787,137.491 87.112,153.825 100.5,167.5C 100.833,168.5 101.5,169.167 102.5,169.5C 116.481,180.366 132.148,183.532 149.5,179C 154.822,177.872 159.155,175.372 162.5,171.5C 165.14,171.046 167.473,169.879 169.5,168C 185.72,150.142 189.22,129.976 180,107.5C 178.694,104.379 176.86,101.713 174.5,99.5C 172.167,96.5 169.5,93.8333 166.5,91.5C 162.012,88.5302 160.845,84.5302 163,79.5C 166.172,76.4961 169.672,75.9961 173.5,78C 184.313,85.3207 191.98,95.154 196.5,107.5C 200.912,120.944 201.578,134.61 198.5,148.5C 198.5,148.833 198.5,149.167 198.5,149.5C 196.046,154.408 193.546,159.408 191,164.5C 187.644,169.345 184.144,174.012 180.5,178.5C 170.971,186.01 160.304,191.343 148.5,194.5C 130.187,197.571 113.187,194.237 97.5,184.5C 69.6426,161.406 62.8092,133.072 77,99.5C 82.4817,90.3524 89.6484,82.8524 98.5,77C 108.174,77.8195 110.507,82.3195 105.5,90.5 Z"/></g>
<g><path style="opacity:0.62" fill="#83ae63" d="M 79.5,26.5 C 77.8322,29.6505 75.1655,31.4839 71.5,32C 68.6007,34.7291 65.934,37.5624 63.5,40.5C 66.6356,33.3669 71.9689,28.7002 79.5,26.5 Z"/></g>
<g><path style="opacity:1" fill="#73a84e" d="M 207.5,41.5 C 209.47,43.6467 211.303,45.98 213,48.5C 221.271,64.0487 229.771,79.382 238.5,94.5C 235.227,91.2086 232.393,87.5419 230,83.5C 227.412,77.9861 224.078,72.9861 220,68.5C 218.792,64.3132 217.125,60.3132 215,56.5C 211.17,52.2309 208.67,47.2309 207.5,41.5 Z"/></g>
<g><path style="opacity:0.655" fill="#7ca45a" d="M 166.5,91.5 C 169.5,93.8333 172.167,96.5 174.5,99.5C 170.877,97.8776 168.211,95.2109 166.5,91.5 Z"/></g>
<g><path style="opacity:0.812" fill="#6fa74e" d="M 126.5,67.5 C 126.333,89.8358 126.5,112.169 127,134.5C 128.214,136.049 129.714,137.215 131.5,138C 137.821,139.507 142.154,137.34 144.5,131.5C 144.657,132.873 144.49,134.207 144,135.5C 142.283,136.988 141.116,138.821 140.5,141C 137.905,141.226 135.405,141.726 133,142.5C 131.2,140.683 129.034,139.516 126.5,139C 125.809,137.933 125.309,136.766 125,135.5C 124.545,113.818 124.212,92.1515 124,70.5C 124.377,69.0577 125.21,68.0577 126.5,67.5 Z"/></g>
<g><path style="opacity:1" fill="#75ac4a" d="M 31.5,95.5 C 31.6621,97.5273 31.4955,99.5273 31,101.5C 27.3251,106.858 23.6584,112.191 20,117.5C 19.6799,120.54 19.6799,123.54 20,126.5C 18.4419,127.345 17.4419,126.679 17,124.5C 15.0643,133.357 15.5643,142.024 18.5,150.5C 16.3596,148.3 14.8596,145.633 14,142.5C 12.9451,135.314 13.6118,128.314 16,121.5C 20.941,112.605 26.1077,103.938 31.5,95.5 Z"/></g>
<g><path style="opacity:0.996" fill="#73a64c" d="M 196.5,107.5 C 198.093,108.348 199.26,109.681 200,111.5C 200.412,117.825 201.246,123.992 202.5,130C 202.333,132.5 202.167,135 202,137.5C 201.154,141.388 199.987,145.055 198.5,148.5C 201.578,134.61 200.912,120.944 196.5,107.5 Z"/></g>
<g><path style="opacity:1" fill="#71aa46" d="M 244.5,105.5 C 261.378,124.236 261.712,143.236 245.5,162.5C 246.707,159.186 246.707,155.852 245.5,152.5C 248.671,152.351 251.004,150.851 252.5,148C 251.813,146.838 251.647,145.672 252,144.5C 252.414,144.957 252.914,145.291 253.5,145.5C 255.632,139.249 255.966,132.915 254.5,126.5C 250.149,125.631 248.815,123.131 250.5,119C 248.351,114.537 246.351,110.037 244.5,105.5 Z"/></g>
<g><path style="opacity:1" fill="#72ae4b" d="M 105.5,90.5 C 104.662,93.5133 103.162,96.1799 101,98.5C 94.4363,101.763 92.2697,106.596 94.5,113C 93.9717,115.862 93.3051,118.696 92.5,121.5C 91.7379,120.372 91.0712,119.205 90.5,118C 89.5509,117.383 88.7175,117.549 88,118.5C 86.7366,129.763 87.9032,140.763 91.5,151.5C 92.7362,152.246 94.0695,152.579 95.5,152.5C 95.6816,154.591 95.3482,156.591 94.5,158.5C 95.7277,160.321 97.3944,161.321 99.5,161.5C 99.472,163.582 100.139,165.416 101.5,167C 101.272,167.399 100.938,167.565 100.5,167.5C 87.112,153.825 82.2787,137.491 86,118.5C 88.8166,106.511 95.3166,97.1779 105.5,90.5 Z"/></g>
<g><path style="opacity:1" fill="#80b658" d="M 102.5,169.5 C 106.497,168.068 109.497,169.402 111.5,173.5C 117.974,175.785 124.641,177.452 131.5,178.5C 138.559,176.915 145.559,176.082 152.5,176C 155.522,173.904 158.855,172.404 162.5,171.5C 159.155,175.372 154.822,177.872 149.5,179C 132.148,183.532 116.481,180.366 102.5,169.5 Z"/></g>
<g><path style="opacity:1" fill="#74ab4c" d="M 198.5,149.5 C 198.261,151.467 198.594,153.301 199.5,155C 198.584,155.374 197.75,155.874 197,156.5C 197,158.5 197,160.5 197,162.5C 194.114,164.634 191.447,166.968 189,169.5C 188.798,171.256 188.298,172.922 187.5,174.5C 184.692,175.094 182.359,176.427 180.5,178.5C 184.144,174.012 187.644,169.345 191,164.5C 193.546,159.408 196.046,154.408 198.5,149.5 Z"/></g>
<g><path style="opacity:1" fill="#82b25b" d="M 97.5,184.5 C 113.187,194.237 130.187,197.571 148.5,194.5C 148.082,195.222 147.416,195.722 146.5,196C 134.817,196.666 123.15,196.499 111.5,195.5C 111.5,194.5 111.5,193.5 111.5,192.5C 109.396,192.799 107.396,192.466 105.5,191.5C 102.714,189.138 100.047,186.804 97.5,184.5 Z"/></g>
<g><path style="opacity:0.922" fill="#73a551" d="M 41.5,191.5 C 44.7722,193.998 47.1055,197.331 48.5,201.5C 52.0944,202.875 53.4277,205.542 52.5,209.5C 48.3457,203.87 44.679,197.87 41.5,191.5 Z"/></g>
<g><path style="opacity:1" fill="#71aa46" d="M 233.5,184.5 C 224.078,200.342 214.912,216.342 206,232.5C 205.292,233.381 204.458,234.047 203.5,234.5C 202.536,230.189 204.036,227.189 208,225.5C 208.346,223.782 208.846,222.115 209.5,220.5C 209.291,219.914 208.957,219.414 208.5,219C 209.711,217.156 211.044,216.322 212.5,216.5C 211.529,215.038 211.862,213.705 213.5,212.5C 212.708,210.805 213.042,209.138 214.5,207.5C 215.281,208.729 215.781,210.062 216,211.5C 217.804,208.986 217.97,206.319 216.5,203.5C 218.278,203.431 220.111,203.097 222,202.5C 223.424,199.325 224.924,196.158 226.5,193C 225.057,190.922 225.724,190.089 228.5,190.5C 228.281,189.325 228.614,188.325 229.5,187.5C 230.642,186.174 231.976,185.174 233.5,184.5 Z"/></g>
<g><path style="opacity:0.967" fill="#74af4f" d="M 52.5,210.5 C 53.4959,210.414 54.3292,210.748 55,211.5C 55.6265,215.609 57.7932,218.276 61.5,219.5C 61.5,220.833 61.5,222.167 61.5,223.5C 63.1439,223.286 64.6439,223.62 66,224.5C 67.7478,227.689 68.5811,230.856 68.5,234C 73.0313,234.537 76.5313,236.703 79,240.5C 79.772,240.355 80.4387,240.022 81,239.5C 82.4907,241.004 84.324,241.837 86.5,242C 119.5,242.667 152.5,242.667 185.5,242C 190.182,241.434 193.015,238.934 194,234.5C 197.131,235.7 200.298,235.7 203.5,234.5C 199.841,239.669 194.841,242.836 188.5,244C 173.17,244.5 157.837,244.667 142.5,244.5C 123.004,243.668 103.338,243.168 83.5,243C 81.1873,242.338 78.854,241.838 76.5,241.5C 71.6505,239.164 67.4839,235.831 64,231.5C 60.1688,224.505 56.3354,217.505 52.5,210.5 Z"/></g>
<g><path style="opacity:0.506" fill="#79a55e" d="M 76.5,241.5 C 78.854,241.838 81.1873,242.338 83.5,243C 103.338,243.168 123.004,243.668 142.5,244.5C 122.497,244.667 102.497,244.5 82.5,244C 80.1484,243.76 78.1484,242.927 76.5,241.5 Z"/></g>
</svg>
